# xmcd
#
# Track frame offsets:
#	150
#	18070
#	36540
#
# Disc length: 751 seconds
#
# Revision: 0
# Processed by: cddbd v1.5.2PL0 Copyright (c) Steve Scherf et al.
# Submitted via: dBpowerAMP V4.0
#
DISCID=1b02ed03
DTITLE=Tony Carey - Jail Single
DYEAR=1997
DGENRE=Country
TTITLE0=Jail
TTITLE1=Ogalalla Boulevard
TTITLE2=I Want To Be Here
EXTD=
EXTT0=
EXTT1=
EXTT2=
PLAYORDER=
